<svg width="119" height="32" viewBox="0 0 119 32" fill="none" xmlns="http://www.w3.org/2000/svg">
<path d="M48.0703 10.436V23H45.5503V17.654H40.1683V23H37.6483V10.436H40.1683V15.602H45.5503V10.436H48.0703ZM59.9646 13.028V23H57.4266V21.74C57.1026 22.172 56.6766 22.514 56.1486 22.766C55.6326 23.006 55.0686 23.126 54.4566 23.126C53.6766 23.126 52.9866 22.964 52.3866 22.64C51.7866 22.304 51.3126 21.818 50.9646 21.182C50.6286 20.534 50.4606 19.766 50.4606 18.878V13.028H52.9806V18.518C52.9806 19.31 53.1786 19.922 53.5746 20.354C53.9706 20.774 54.5106 20.984 55.1946 20.984C55.8906 20.984 56.4366 20.774 56.8326 20.354C57.2286 19.922 57.4266 19.31 57.4266 18.518V13.028H59.9646ZM71.991 13.028L65.817 27.716H63.135L65.295 22.748L61.299 13.028H64.125L66.699 19.994L69.309 13.028H71.991Z" fill="white"/>
<path d="M80.4774 16.556C81.1854 16.688 81.7674 17.042 82.2234 17.618C82.6794 18.194 82.9074 18.854 82.9074 19.598C82.9074 20.27 82.7394 20.864 82.4034 21.38C82.0794 21.884 81.6054 22.28 80.9814 22.568C80.3574 22.856 79.6194 23 78.7674 23H73.3494V10.436H78.5334C79.3854 10.436 80.1174 10.574 80.7294 10.85C81.3534 11.126 81.8214 11.51 82.1334 12.002C82.4574 12.494 82.6194 13.052 82.6194 13.676C82.6194 14.408 82.4214 15.02 82.0254 15.512C81.6414 16.004 81.1254 16.352 80.4774 16.556ZM75.8694 15.62H78.1734C78.7734 15.62 79.2354 15.488 79.5594 15.224C79.8834 14.948 80.0454 14.558 80.0454 14.054C80.0454 13.55 79.8834 13.16 79.5594 12.884C79.2354 12.608 78.7734 12.47 78.1734 12.47H75.8694V15.62ZM78.4074 20.948C79.0194 20.948 79.4934 20.804 79.8294 20.516C80.1774 20.228 80.3514 19.82 80.3514 19.292C80.3514 18.752 80.1714 18.332 79.8114 18.032C79.4514 17.72 78.9654 17.564 78.3534 17.564H75.8694V20.948H78.4074ZM84.2678 17.978C84.2678 16.97 84.4658 16.076 84.8618 15.296C85.2698 14.516 85.8158 13.916 86.4998 13.496C87.1958 13.076 87.9698 12.866 88.8218 12.866C89.5658 12.866 90.2138 13.016 90.7658 13.316C91.3298 13.616 91.7798 13.994 92.1158 14.45V13.028H94.6538V23H92.1158V21.542C91.7918 22.01 91.3418 22.4 90.7658 22.712C90.2018 23.012 89.5478 23.162 88.8038 23.162C87.9638 23.162 87.1958 22.946 86.4998 22.514C85.8158 22.082 85.2698 21.476 84.8618 20.696C84.4658 19.904 84.2678 18.998 84.2678 17.978ZM92.1158 18.014C92.1158 17.402 91.9958 16.88 91.7558 16.448C91.5158 16.004 91.1918 15.668 90.7838 15.44C90.3758 15.2 89.9378 15.08 89.4698 15.08C89.0018 15.08 88.5698 15.194 88.1738 15.422C87.7778 15.65 87.4538 15.986 87.2018 16.43C86.9618 16.862 86.8418 17.378 86.8418 17.978C86.8418 18.578 86.9618 19.106 87.2018 19.562C87.4538 20.006 87.7778 20.348 88.1738 20.588C88.5818 20.828 89.0138 20.948 89.4698 20.948C89.9378 20.948 90.3758 20.834 90.7838 20.606C91.1918 20.366 91.5158 20.03 91.7558 19.598C91.9958 19.154 92.1158 18.626 92.1158 18.014ZM102.641 12.884C103.829 12.884 104.789 13.262 105.521 14.018C106.253 14.762 106.619 15.806 106.619 17.15V23H104.099V17.492C104.099 16.7 103.901 16.094 103.505 15.674C103.109 15.242 102.569 15.026 101.885 15.026C101.189 15.026 100.637 15.242 100.229 15.674C99.833 16.094 99.635 16.7 99.635 17.492V23H97.115V13.028H99.635V14.27C99.971 13.838 100.397 13.502 100.913 13.262C101.441 13.01 102.017 12.884 102.641 12.884ZM114.919 23L111.535 18.752V23H109.015V9.68H111.535V17.258L114.883 13.028H118.159L113.767 18.032L118.195 23H114.919Z" fill="#5CE1E6"/>
<path d="M16.4063 0C13.2417 -3.77363e-08 10.1483 0.938383 7.51713 2.69649C4.88594 4.45459 2.83518 6.95345 1.62418 9.87706C0.413176 12.8007 0.096322 16.0177 0.713685 19.1214C1.33105 22.2251 2.8549 25.0761 5.09254 27.3137C7.33018 29.5513 10.1811 31.0752 13.2848 31.6926C16.3885 32.3099 19.6056 31.9931 22.5292 30.7821C25.4528 29.5711 27.9517 27.5203 29.7098 24.8891C31.4679 22.2579 32.4062 19.1645 32.4062 16L24.4062 16C24.4062 17.5823 23.9371 19.129 23.058 20.4446C22.179 21.7602 20.9295 22.7855 19.4677 23.391C18.0059 23.9965 16.3974 24.155 14.8455 23.8463C13.2937 23.5376 11.8682 22.7757 10.7494 21.6569C9.63057 20.538 8.86865 19.1126 8.55997 17.5607C8.25129 16.0089 8.40971 14.4003 9.01521 12.9385C9.62072 11.4767 10.6461 10.2273 11.9617 9.34824C13.2773 8.46919 14.824 8 16.4063 8L16.4063 0Z" fill="white"/>
<path d="M16.4063 0C14.3051 -2.5056e-08 12.2245 0.413852 10.2833 1.21793C8.34211 2.022 6.57828 3.20055 5.09254 4.68629C3.6068 6.17203 2.42825 7.93586 1.62418 9.87707C0.820102 11.8183 0.40625 13.8989 0.40625 16L8.40625 16C8.40625 14.9494 8.61318 13.9091 9.01521 12.9385C9.41725 11.9679 10.0065 11.086 10.7494 10.3431C11.4923 9.60028 12.3742 9.011 13.3448 8.60896C14.3154 8.20693 15.3557 8 16.4063 8L16.4063 0Z" fill="#5CE1E6"/>
<circle cx="16.4062" cy="16" r="5" fill="#5CE1E6"/>
<path d="M21.4062 16C21.4062 15.3434 21.2769 14.6932 21.0256 14.0866C20.7744 13.48 20.4061 12.9288 19.9418 12.4645C19.4775 12.0002 18.9263 11.6319 18.3197 11.3806C17.713 11.1293 17.0629 11 16.4062 11C15.7496 11 15.0995 11.1293 14.4928 11.3806C13.8862 11.6319 13.335 12.0002 12.8707 12.4645C12.4064 12.9288 12.0381 13.48 11.7869 14.0866C11.5356 14.6932 11.4062 15.3434 11.4063 16L16.4062 16H21.4062Z" fill="white"/>
</svg>

